/* XPM */
static char * flvgui_xpm[] = {
"19 20 74 1",
" 	c None",
".	c #0A0A0A",
"+	c #A5A5A5",
"@	c #404040",
"#	c #000000",
"$	c #CDCDCD",
"%	c #202020",
"&	c #1616F3",
"*	c #0101F2",
"=	c #0707F2",
"-	c #0606C3",
";	c #010118",
">	c #1A1AF3",
",	c #0505F2",
"'	c #0D0DF2",
")	c #0404F2",
"!	c #FCEDE8",
"~	c #F5B7A1",
"{	c #FFFFFF",
"]	c #6BC194",
"^	c #80EA80",
"/	c #2B44D1",
"(	c #F19D80",
"_	c #EDA38D",
":	c #6EC691",
"<	c #8670CC",
"[	c #F09C7E",
"}	c #C5C6F8",
"|	c #BFF4BF",
"1	c #F8D2C5",
"2	c #D7B283",
"3	c #44CE2F",
"4	c #D7D8FB",
"5	c #6C6FEF",
"6	c #8776D5",
"7	c #6E71EF",
"8	c #9AEE9A",
"9	c #5FB82B",
"0	c #97609E",
"a	c #9B78BC",
"b	c #8BD9A0",
"c	c #D2E5E6",
"d	c #CDF7CD",
"e	c #D3CC9F",
"f	c #32DC32",
"g	c #DB8A81",
"h	c #8DD69D",
"i	c #E6FBE6",
"j	c #6399B7",
"k	c #92A1E6",
"l	c #EF8F6E",
"m	c #ED825D",
"n	c #EA6F44",
"o	c #EF8E6C",
"p	c #99D075",
"q	c #FEFBFA",
"r	c #F2A68B",
"s	c #98EE98",
"t	c #E75927",
"u	c #FADCD1",
"v	c #3F47E5",
"w	c #C98846",
"x	c #FBE0D7",
"y	c #EC7951",
"z	c #D17537",
"A	c #D1D2FA",
"B	c #F2A58A",
"C	c #BFBFBF",
"D	c #989898",
"E	c #E6E6E6",
"F	c #808080",
"G	c #0202F2",
"H	c #0808F2",
"I	c #3434F4",
"                   ",
"          .+  .+   ",
"          +. @#    ",
"           @@#$    ",
"            #%     ",
" &*========-;===*> ",
" ,*>>>>>>>>>>>>>*' ",
" ')!!!~{]~!{^!~{)' ",
" ')~~!~{/~(_:<[{)' ",
" ')}}||11234561{)' ",
" ')77|890a!bcd!~)' ",
" ')1ef{{ghijkf!~)' ",
" ')lmn||oppqrsi{)' ",
" ')ltu||{vwxyzin)' ",
" ')11{{{{A{{{B{u)' ",
" ')11CCDDEDCCFrr)' ",
" ')11CCEEEDCCF{{)' ",
" G*HHHHHHHHHHHHH*= ",
" '*HHHHHHHHHHHHH*I ",
"                   "};
